<?xml version="1.0" standalone="no"?>
<!DOCTYPE svg PUBLIC "-//W3C//DTD SVG 20010904//EN"
 "http://www.w3.org/TR/2001/REC-SVG-20010904/DTD/svg10.dtd">
<svg version="1.0" xmlns="http://www.w3.org/2000/svg"
 width="421.000000pt" height="421.000000pt" viewBox="0 0 421.000000 421.000000"
 preserveAspectRatio="xMidYMid meet">
<metadata>
Created by potrace 1.14, written by Peter Selinger 2001-2017
</metadata>
<g transform="translate(0.000000,421.000000) scale(0.100000,-0.100000)"
fill="#000000" stroke="none">
<path d="M1749 3619 c-24 -24 -61 -39 -95 -39 -13 0 -33 -9 -43 -19 -11 -11
-38 -25 -60 -31 -45 -12 -105 -76 -117 -125 -4 -17 -22 -46 -39 -66 -21 -23
-36 -52 -40 -80 -5 -28 -20 -58 -42 -84 -33 -38 -34 -43 -28 -93 4 -32 2 -74
-5 -104 -10 -40 -10 -61 0 -103 10 -43 10 -63 -4 -123 -19 -86 -35 -301 -36
-482 0 -74 -4 -148 -8 -165 l-9 -30 -27 57 c-42 88 -132 150 -150 102 -9 -24
-7 -54 4 -54 19 0 89 -50 106 -75 9 -13 22 -66 29 -118 7 -51 18 -113 25 -137
6 -25 15 -61 20 -80 7 -27 6 -38 -7 -52 -22 -25 -42 -23 -76 10 -32 28 -28 12
5 -25 17 -18 27 -21 72 -16 51 5 53 5 73 -28 12 -19 30 -69 42 -111 27 -101
87 -238 136 -313 47 -71 192 -224 284 -299 113 -93 252 -156 341 -156 174 0
501 200 656 401 51 67 120 192 159 291 35 89 43 95 105 79 57 -15 83 -3 114
51 l19 33 -34 -32 c-40 -37 -76 -46 -92 -21 -9 13 -1 37 35 115 26 54 52 124
58 155 6 31 21 72 33 90 26 38 94 69 107 49 10 -18 21 27 14 59 -12 52 -11 52
-51 35 -44 -19 -75 -45 -114 -99 l-29 -39 0 61 c0 33 6 89 14 124 24 104 59
503 52 577 -8 73 -31 133 -72 185 -24 30 -27 42 -25 90 5 103 -66 204 -190
270 -30 16 -94 56 -143 88 -111 74 -188 113 -291 149 -44 15 -105 36 -136 48
-31 11 -85 23 -120 25 -35 3 -81 12 -101 20 -39 17 -109 20 -143 7 -13 -5 -36
-1 -65 11 -89 39 -89 39 -111 17z m251 -631 c101 -15 205 -21 415 -24 154 -2
298 -9 320 -15 97 -26 189 -100 231 -185 25 -51 26 -60 20 -147 -4 -50 -16
-150 -28 -222 -14 -95 -21 -201 -25 -390 -4 -217 -8 -272 -24 -335 -26 -98
-89 -210 -140 -251 -22 -18 -51 -49 -64 -69 -13 -21 -63 -79 -111 -129 -65
-68 -102 -98 -148 -120 -73 -35 -144 -57 -153 -48 -3 4 27 40 67 82 41 41 83
89 94 107 l21 33 -50 -38 c-28 -21 -88 -57 -135 -80 -76 -37 -93 -42 -155 -42
-103 1 -191 43 -297 144 -60 56 -44 20 20 -46 72 -76 121 -101 230 -118 l87
-13 -60 0 c-33 0 -85 3 -115 7 -44 6 -57 5 -66 -7 -11 -15 -23 -15 -118 3 -58
11 -53 7 -244 262 -19 25 -45 66 -58 91 -14 26 -40 63 -59 82 -72 74 -122 266
-111 425 3 50 14 122 23 160 14 56 17 119 18 325 0 266 7 317 53 405 43 84
129 149 230 175 46 11 158 4 332 -22z"/>
<path d="M1576 2608 c-42 -25 -90 -80 -101 -116 -11 -36 19 -38 73 -3 27 17
69 33 93 37 44 5 154 -13 241 -40 42 -13 49 -13 62 0 22 21 28 51 16 73 -16
31 -128 62 -245 67 -91 5 -103 3 -139 -18z"/>
<path d="M2517 2561 c-73 -19 -87 -30 -87 -72 0 -47 18 -51 111 -29 153 36
233 27 297 -37 50 -51 79 -54 74 -8 -5 46 -48 111 -89 136 -52 32 -205 37
-306 10z"/>
<path d="M1658 2276 c-76 -20 -188 -107 -188 -146 0 -16 12 -10 66 30 36 28
69 50 75 50 5 0 2 -14 -7 -32 -14 -27 -16 -100 -2 -113 2 -2 44 -9 93 -15 50
-6 104 -13 122 -16 28 -5 33 -2 47 25 21 40 20 89 -3 134 -22 44 -19 45 26 11
37 -28 59 -65 72 -121 l9 -38 1 37 c1 51 -12 81 -59 132 -65 70 -147 90 -252
62z m56 -78 c8 -14 7 -21 -6 -34 -22 -22 -58 -10 -58 21 0 37 43 46 64 13z"/>
<path d="M2523 2219 c-23 -4 -59 -19 -80 -33 -39 -27 -93 -99 -93 -125 0 -9
-3 -27 -6 -41 -2 -14 3 -7 12 15 24 55 61 103 98 126 44 27 50 24 24 -11 -26
-35 -38 -104 -25 -142 l9 -28 129 0 128 0 6 38 c4 20 8 42 9 47 2 6 -1 20 -5
33 -14 36 4 26 65 -38 53 -55 70 -60 63 -20 -2 14 -13 28 -70 88 -66 70 -175
108 -264 91z m41 -84 c9 -25 -5 -45 -30 -45 -26 0 -40 20 -30 45 3 8 16 15 30
15 13 0 26 -7 30 -15z"/>
<path d="M1945 1750 c-35 -108 44 -174 210 -175 112 0 152 19 175 83 13 37 12
45 -2 74 -15 29 -17 30 -17 10 -2 -69 -52 -102 -156 -102 -111 0 -170 28 -188
89 -12 43 -14 44 -22 21z"/>
<path d="M1653 1588 c-45 -22 -19 -85 31 -76 19 4 25 -1 36 -31 19 -54 84
-136 143 -180 58 -42 156 -95 164 -88 2 3 -5 8 -16 12 -32 10 -25 22 17 27 43
5 180 -6 189 -16 10 -10 -12 -27 -49 -37 -27 -7 -23 -8 22 -4 115 9 300 130
341 222 12 29 17 32 45 27 37 -7 59 15 50 49 -11 44 -98 63 -129 29 -10 -10
-17 -23 -17 -28 0 -5 -53 -7 -126 -5 -73 2 -151 -2 -183 -9 -49 -10 -63 -9
-115 9 -32 11 -108 26 -170 32 -116 11 -130 15 -121 29 8 13 -44 50 -69 49
-11 0 -31 -5 -43 -11z m327 -133 c58 -9 161 -16 229 -16 118 0 168 -9 156 -29
-10 -17 -175 -23 -288 -10 -114 12 -215 34 -231 50 -11 11 1 30 17 25 7 -3 59
-12 117 -20z"/>
<path d="M1032 2150 c0 -14 2 -19 5 -12 2 6 2 18 0 25 -3 6 -5 1 -5 -13z"/>
<path d="M1031 2104 c0 -11 3 -14 6 -6 3 7 2 16 -1 19 -3 4 -6 -2 -5 -13z"/>
</g>
</svg>
